<?xml version="1.0" encoding="UTF-8"?>
<svg xmlns="http://www.w3.org/2000/svg" viewBox="0 0 470.86 374.71">
  <defs>
    <style>
      .cls-1 {
        fill: #515151;
      }

      .cls-1, .cls-2, .cls-3 {
        stroke-width: 0px;
      }

      .cls-2 {
        fill: #1c1c1c;
      }

      .cls-3 {
        fill: #333;
      }
    </style>
  </defs>
  <g id="Layer_1" data-name="Layer 1">
    <polygon class="cls-1" points="148.81 0 148.81 23.84 23.82 23.84 23.82 148.8 0 148.8 0 0 148.81 0"/>
    <polygon class="cls-1" points="148.81 350.88 148.81 374.71 0 374.71 0 225.91 23.82 225.91 23.82 350.88 148.81 350.88"/>
    <polygon class="cls-1" points="470.86 0 470.86 148.8 447.04 148.8 447.04 23.84 322.05 23.84 322.05 0 470.86 0"/>
    <polygon class="cls-1" points="470.86 225.91 470.86 374.71 322.05 374.71 322.05 350.88 447.04 350.88 447.04 225.91 470.86 225.91"/>
  </g>
  <g id="Layer_3" data-name="Layer 3">
    <g>
      <path class="cls-2" d="m69.92,301.31V74.84c0-4.27,3.46-7.73,7.73-7.73h33.92c2.05,0,4.02.81,5.47,2.26l72.35,72.35c3.02,3.02,7.91,3.02,10.93,0l73.8-73.8c1.45-1.45,3.42-2.26,5.47-2.26h34.45c4.27,0,7.73,3.46,7.73,7.73v108.95c0,6.89-8.33,10.33-13.2,5.47l-22.36-22.36c-1.45-1.45-2.26-3.42-2.26-5.47v-28.64c0-6.89-8.33-10.33-13.2-5.47l-69.78,69.78c-3.02,3.02-7.91,3.02-10.93,0l-68.19-68.19c-4.87-4.87-13.2-1.42-13.2,5.47v168.38c0,4.27-3.46,7.73-7.73,7.73h-23.27c-4.27,0-7.73-3.46-7.73-7.73Z"/>
      <path class="cls-3" d="m400.95,71.76v229.75c0,3.36-2.73,6.09-6.09,6.09h-36.24c-1.62,0-3.17-.64-4.31-1.78l-73.99-73.99c-2.38-2.38-6.24-2.38-8.62,0l-75.44,75.44c-1.14,1.14-2.69,1.78-4.31,1.78h-36.76c-3.36,0-6.09-2.73-6.09-6.09v-114.54c0-5.43,6.56-8.15,10.4-4.31l25.64,25.64c1.14,1.14,1.78,2.69,1.78,4.31v33.27c0,5.43,6.56,8.15,10.4,4.31l73.73-73.73c2.38-2.38,6.24-2.38,8.62,0l72.14,72.14c3.84,3.84,10.4,1.12,10.4-4.31V71.76c0-3.36,2.73-6.09,6.09-6.09h26.55c3.36,0,6.09,2.73,6.09,6.09Z"/>
    </g>
  </g>
</svg>